<?xml version="1.0" encoding="UTF-8"?>
<svg xmlns="http://www.w3.org/2000/svg" version="1.1" viewBox="0 0 1145 512">
  <!-- Generator: Adobe Illustrator 30.4.0, SVG Export Plug-In . SVG Version: 2.1.4 Build 226)  -->
  <defs>
    <style>
      .st0 {
        fill: none;
        stroke: #121b29;
        stroke-linecap: round;
        stroke-linejoin: round;
        stroke-width: 16px;
      }

      .st1 {
        fill: #fff;
      }

      .st2 {
        fill: #121b29;
      }

      .st3 {
        fill: #6e8ff0;
      }
    </style>
  </defs>
  <g id="_图层_2" data-name="图层_2">
    <rect class="st1" x="36" y="42" width="1073" height="428"/>
  </g>
  <g id="_图层_1">
    <path class="st2" d="M479.84,321.64c4.03,0,7.5-3.14,7.5-7.33l.14-63.61,46.8,67.66c1.5,2.09,3.9,3.28,6.15,3.28,4.05,0,7.35-3,7.35-7.33v-87.45c0-4.05-3.44-7.5-7.35-7.5-4.2,0-7.5,3.45-7.5,7.5v63.75l-46.95-67.97c-1.36-1.94-3.89-3.14-6.14-3.14-4.22,0-7.22,3.45-7.22,7.36l-.14,87.45c0,3.89,3.45,7.33,7.36,7.33h0ZM579.89,348.5c3.14,0,5.53-2.11,6.75-4.64l40.03-87c.47-.91.61-2.11.61-3,0-4.22-3-7.36-6.61-7.36-3.14,0-5.69,2.11-6.89,4.64l-18.89,41.86-21.16-41.86c-1.06-2.09-3.31-4.5-6.9-4.5-4.19,0-7.5,3.31-7.5,7.36,0,1.36.45,2.7.9,3.61l26.85,52.34-13.05,28.05c-.45,1.05-.75,2.25-.75,3.14,0,4.06,3,7.36,6.61,7.36h0ZM686.23,323.14c4.2,0,7.2-3.59,7.2-7.5v-62.39c-3.9-1.8-13.2-6.44-24-6.44-22.2,0-36,21.74-36,42.44,0,19.36,12.44,32.39,28.94,32.39,6,0,12.47-1.64,17.11-6.59v2.09c0,3.61,2.7,6,6.75,6ZM663.43,307.7c-9.59,0-15.45-6.31-15.45-18.75,0-14.7,8.55-28.34,21.75-28.34,3.14,0,6.89.75,9.45,1.78l-.45,39.16c-3.14,2.84-9,6.15-15.3,6.15ZM715.18,321.64c3.89,0,6.61-2.25,7.36-5.83l13.19-60.31,19.5,61.05c1.2,3.59,3.75,5.09,6.9,5.09s6-1.78,7.05-4.78l23.11-63.61,13.78,62.7c.75,3.3,3.16,5.69,7.22,5.69,4.34,0,7.34-3.28,7.34-6.89,0-1.2-.31-2.39-.75-4.5l-19.06-84.89c-.75-3.47-3.14-5.86-6.59-5.86-3.75,0-6.3,1.5-7.5,4.81l-24,66.74-21.16-66.44c-1.03-3.16-3.14-5.11-6.89-5.11s-6.61,2.39-7.36,5.86l-18.59,85.03c-.6,2.56-.6,4.22-.6,4.97,0,2.84,2.25,6.28,7.05,6.28h0ZM883.33,323.14c4.2,0,7.2-3.59,7.2-7.5v-62.39c-3.9-1.8-13.2-6.44-24-6.44-22.2,0-36,21.74-36,42.44,0,19.36,12.44,32.39,28.94,32.39,6,0,12.47-1.64,17.11-6.59v2.09c0,3.61,2.7,6,6.75,6ZM860.53,307.7c-9.59,0-15.45-6.31-15.45-18.75,0-14.7,8.55-28.34,21.75-28.34,3.14,0,6.89.75,9.45,1.78l-.45,39.16c-3.14,2.84-9,6.15-15.3,6.15ZM918.89,321.64c3.59,0,7.19-3.28,7.19-6.89l.15-28.5c0-6.14.6-11.39,5.1-17.11,2.56-3.44,7.95-8.39,12-8.39,2.56,0,3.31.89,3.31,2.39v1.97c0,3.44,1.78,7.2,7.03,7.2,4.06,0,7.06-3.17,7.06-7.06v-4.5c0-6.44-3.15-14.25-14.4-14.25-8.85,0-15.44,4.36-20.1,12v-4.5c0-4.05-3.31-7.19-7.34-7.19s-7.36,3.14-7.36,7.19v60.75c0,3.61,3.61,6.89,7.36,6.89h0ZM979.48,321.64c4.2,0,7.36-3.44,7.36-7.19v-21.75c2.09-1.34,5.39-3.45,8.69-6,4.81,6.16,15.45,19.66,24.59,31.94,1.36,1.67,3.47,2.56,5.72,2.56,4.34,0,7.19-3.45,7.19-7.5,0-2.09-1.05-3.59-1.94-4.65-4.97-6.16-14.56-18.3-24.75-31.05,6.14-5.69,15.14-15.14,20.69-22.5.75-.89,1.5-2.39,1.5-4.36,0-3.89-3-6.89-7.05-6.89-2.7,0-4.5,1.36-5.86,3-7.94,9.61-20.69,22.5-28.94,29.56l-.15-48.61c0-3.89-3-7.34-7.19-7.34-3.91,0-7.36,3.14-7.36,7.03l.3,86.56c0,3.75,3.59,7.19,7.2,7.19h0Z"/>
    <path class="st0" d="M169.23,384.69c-24.41,0-41.42-17.01-41.42-41.42v-167.14c0-26.62,18.49-48.81,44.37-48.81,19.97,0,31.06,10.35,43.63,20.71,6.66,5.92,14.05,8.87,25.15,8.87h45.85c11.09,0,18.49-2.96,25.15-8.87,12.57-10.35,23.67-20.71,43.63-20.71,25.88,0,44.37,22.19,44.37,48.81v167.14c0,24.41-17.01,41.42-41.42,41.42h-189.33.02Z"/>
    <path class="st0" d="M179.4,316.53v-62.12c0-26.62,16.27-44.37,36.98-44.37,13.31,0,24.41,10.35,34.76,28.1l31.06,50.29c5.92,10.35,11.09,19.23,17.01,28.1"/>
    <path class="st3" d="M340.59,210.04h0c3.27,0,5.92,2.76,5.92,6.16v98.52c0,3.4-2.65,6.16-5.92,6.16h0c-3.27,0-5.92-2.76-5.92-6.16v-98.52c0-3.4,2.65-6.16,5.92-6.16h0Z"/>
    <path class="st3" d="M330.23,210.04h20.71c3.27,0,5.92,2.76,5.92,6.16h0c0,3.4-2.65,6.16-5.92,6.16h-20.71c-3.27,0-5.92-2.76-5.92-6.16h0c0-3.4,2.65-6.16,5.92-6.16Z"/>
    <path class="st3" d="M330.23,308.55h20.71c3.27,0,5.92,2.76,5.92,6.16h0c0,3.4-2.65,6.16-5.92,6.16h-20.71c-3.27,0-5.92-2.76-5.92-6.16h0c0-3.4,2.65-6.16,5.92-6.16Z"/>
  </g>
</svg>